<svg width="100%" viewBox="0 0 680 480" role="img" xmlns="http://www.w3.org/2000/svg">
<rect width="680" height="480" fill="#F0F4FF" rx="16"/>
<circle cx="340" cy="60" r="22" fill="#1A5CFF" opacity="0.15"/>
<circle cx="340" cy="60" r="14" fill="#1A5CFF" opacity="0.25"/>
<rect x="100" y="100" width="200" height="300" rx="12" fill="white" stroke="#1A5CFF" stroke-width="1.5"/>
<rect x="100" y="100" width="200" height="40" rx="12" fill="#1A5CFF"/>
<rect x="100" y="128" width="200" height="12" fill="#1A5CFF"/>
<text x="200" y="126" text-anchor="middle" font-family="sans-serif" font-size="13" font-weight="700" fill="white">DEYE HYBRID</text>
<rect x="130" y="160" width="140" height="80" rx="6" fill="#0A1628" stroke="#1A5CFF" stroke-width="1"/>
<text x="200" y="192" text-anchor="middle" font-family="monospace" font-size="11" fill="#1A5CFF">OUTPUT</text>
<text x="200" y="212" text-anchor="middle" font-family="monospace" font-size="16" font-weight="700" fill="#00FF88">3.6 kW</text>
<text x="200" y="230" text-anchor="middle" font-family="monospace" font-size="10" fill="#888">230V / 16A</text>
<circle cx="145" cy="265" r="5" fill="#00CC44"/>
<circle cx="165" cy="265" r="5" fill="#1A5CFF"/>
<circle cx="185" cy="265" r="5" fill="#FF9900"/>
<text x="200" y="392" text-anchor="middle" font-family="sans-serif" font-size="12" font-weight="700" fill="#1A5CFF">SUN-20K</text>
<rect x="360" y="130" width="170" height="260" rx="12" fill="white" stroke="#1A5CFF" stroke-width="1.5"/>
<rect x="360" y="130" width="170" height="36" rx="12" fill="#0A1628"/>
<rect x="360" y="154" width="170" height="12" fill="#0A1628"/>
<text x="445" y="153" text-anchor="middle" font-family="sans-serif" font-size="12" font-weight="700" fill="white">SE-G5.1 Pro</text>
<rect x="390" y="185" width="110" height="140" rx="6" fill="#F8F9FF" stroke="#E0E8FF" stroke-width="1"/>
<rect x="400" y="290" width="90" height="25" rx="3" fill="#1A5CFF" opacity="0.9"/>
<rect x="400" y="260" width="90" height="25" rx="3" fill="#1A5CFF" opacity="0.75"/>
<rect x="400" y="230" width="90" height="25" rx="3" fill="#1A5CFF" opacity="0.55"/>
<rect x="400" y="200" width="90" height="25" rx="3" fill="#1A5CFF" opacity="0.25"/>
<text x="445" y="345" text-anchor="middle" font-family="sans-serif" font-size="13" font-weight="700" fill="#1A5CFF">75%</text>
<text x="445" y="362" text-anchor="middle" font-family="sans-serif" font-size="10" fill="#888">5.1 kWh</text>
<path d="M300 240 Q330 240 360 240" fill="none" stroke="#1A5CFF" stroke-width="2" stroke-dasharray="6,3"/>
<text x="200" y="445" text-anchor="middle" font-family="sans-serif" font-size="13" font-weight="600" fill="#1A5CFF">Hybridný menič</text>
<text x="445" y="445" text-anchor="middle" font-family="sans-serif" font-size="13" font-weight="600" fill="#1A5CFF">Batéria LiFePO4</text>
</svg>
